<svg xmlns="http://www.w3.org/2000/svg" version="1.1" xmlns:xlink="http://www.w3.org/1999/xlink" xmlns:svgjs="http://svgjs.com/svgjs" width="400" height="400"><svg version="1.1" id="SvgjsSvg1000" xmlns="http://www.w3.org/2000/svg" xmlns:xlink="http://www.w3.org/1999/xlink" x="0px" y="0px" viewBox="0 0 400 400" style="enable-background:new 0 0 400 400;" xml:space="preserve">
<style type="text/css">
	.st0{fill:#151515;}
</style>
<path class="st0" d="M98,119.1c5.3,0,9.5,1.3,12.5,4c3,2.7,4.5,6.5,4.5,11.6c0,4.8-1.5,8.5-4.5,11.1c-3,2.7-7.1,4-12.5,4
	c-21.7,0-38,7.6-49,22.7c-11,15.1-16.5,34.7-16.5,58.8v102c0,4.5-1.6,8.2-4.7,11.1c-3.1,3-6.9,4.5-11.4,4.5c-5.1,0-9.1-1.4-12-4.2
	c-3-2.8-4.5-6.6-4.5-11.4V139.1c0-4.7,1.7-8.5,5.1-11.4c3.4-2.8,7.2-4.2,11.4-4.2c4.2,0,7.7,1.4,10.7,4.2c3,2.8,4.5,6.6,4.5,11.4
	V157C43.8,131.7,65.9,119.1,98,119.1z"></path>
<path class="st0" d="M357.8,176.6c-6.4-10.6-14.9-18.8-25.5-24.8c-10.6-6-22-8.9-34.2-8.9c-14.6,0-28.3,3.2-41.1,9.6
	c-12.8,6.4-23.2,15.4-31.1,27c-7.9,11.6-11.8,24.9-11.8,39.8V327c0,5.1-1.4,9-4.2,11.8c-2.8,2.8-6.8,4.2-11.8,4.2
	c-5.1,0-9.2-1.5-12.3-4.5c-3.1-3-4.7-6.8-4.7-11.6V58.9c0-4.5,1.6-8,4.9-10.5c3.3-2.5,7.1-3.8,11.6-3.8c4.5,0,8.3,1.3,11.6,3.8
	c3.3,2.5,4.9,6,4.9,10.5v97.9c7.7-14.9,19.2-26,34.4-33.3c15.2-7.3,31.9-10.9,50.1-10.9c17.6,0,34.1,4,49.6,11.8
	c15.5,7.9,28,19.4,37.5,34.6c9.5,15.2,14.3,33.1,14.3,53.6V327c0,5.1-1.4,9-4.2,11.8c-2.8,2.8-6.8,4.2-11.8,4.2
	c-5.1,0-9.1-1.5-12.1-4.5c-3-3-4.5-6.8-4.5-11.6V212.6C367.4,199.2,364.2,187.2,357.8,176.6z"></path>
<path class="st0" d="M400,105.8"></path>
</svg><style>@media (prefers-color-scheme: light) { :root { filter: none; } }
@media (prefers-color-scheme: dark) { :root { filter: contrast(0.8333333333333334) brightness(1.7); } }
</style></svg>