<svg width="26" height="18" viewBox="0 0 26 18" fill="none" xmlns="http://www.w3.org/2000/svg">
<path d="M1.35196 6.12228L11.6484 0.0973623C11.8682 -0.0313439 12.1399 -0.0324447 12.3611 0.0940605C12.5821 0.220739 12.7185 0.455852 12.7187 0.710599L12.7208 3.43104C12.7331 3.43405 12.7428 3.43648 12.7495 3.43834C13.0067 3.5101 13.2802 3.58911 13.6099 3.68706C14.679 4.00466 15.7772 4.41649 17.066 4.98304C18.1846 5.47464 19.2787 6.10919 20.3184 6.86898C21.0613 7.4119 21.7604 8.03799 22.3959 8.72983C24.1254 10.6122 25.0729 13.1116 24.9956 15.5875C24.9821 16.0212 24.9333 16.4374 24.8874 16.7874C24.8418 17.1354 24.5491 17.398 24.1982 17.4059C24.1929 17.406 24.1874 17.4061 24.1822 17.4061C23.8382 17.4061 23.5423 17.1592 23.4821 16.8187C23.2907 15.7368 22.9855 14.8481 22.5489 14.1016C22.0033 13.1688 21.2617 12.3856 20.4045 11.8366C19.6679 11.3648 18.8897 11.0028 18.0253 10.7295C17.0172 10.4108 15.9055 10.2111 14.6269 10.1187C14.111 10.0815 13.5552 10.0627 12.8776 10.0596C12.8571 10.0596 12.8132 10.06 12.7561 10.0607L12.7542 12.6262C12.754 12.8794 12.6191 13.1135 12.4001 13.2406C12.1811 13.3678 11.9109 13.3689 11.6909 13.2434L1.35891 7.35391C1.13822 7.2281 1.0014 6.99421 1.00001 6.7401C0.998564 6.4861 1.13271 6.25064 1.35196 6.12228Z" />
</svg>
