<svg width="22" height="22" viewBox="0 0 22 22" fill="none" xmlns="http://www.w3.org/2000/svg">
<path d="M9.24001 1.32001C5.11329 1.32001 1.76001 4.67329 1.76001 8.80001C1.76001 12.9267 5.11329 16.28 9.24001 16.28C10.8728 16.28 12.3819 15.7541 13.6125 14.8638L19.4013 20.6388L20.6388 19.4013L14.9188 13.6675C16.0428 12.3578 16.72 10.658 16.72 8.80001C16.72 4.67329 13.3667 1.32001 9.24001 1.32001ZM9.24001 2.20001C12.8906 2.20001 15.84 5.14938 15.84 8.80001C15.84 12.4506 12.8906 15.4 9.24001 15.4C5.58938 15.4 2.64001 12.4506 2.64001 8.80001C2.64001 5.14938 5.58938 2.20001 9.24001 2.20001Z"/>
</svg>
