<svg width="18" height="20" viewBox="0 0 18 20" fill="none" xmlns="http://www.w3.org/2000/svg">
<g clip-path="url(#clip0_253_360)">
<path d="M16.5996 14.795C16.458 14.7998 16.3164 14.8047 16.1748 14.8047C13.8359 14.8047 11.6338 13.8819 9.9834 12.1973C8.32812 10.5176 7.41992 8.28616 7.41992 5.90824C7.41992 4.5557 7.71777 3.2471 8.27441 2.06546C8.42578 1.7432 8.72852 1.25491 8.93848 0.922884C9.03125 0.781282 8.91406 0.595735 8.74805 0.625032C8.45508 0.668977 8.00586 0.766634 7.39551 0.957063C3.59668 2.16312 0.90625 5.73734 0.90625 9.9512C0.90625 15.1563 5.06152 19.375 10.1885 19.375C13.0205 19.375 15.5596 18.086 17.2637 16.0498C17.5566 15.6983 17.8252 15.376 18.0645 14.9854C18.1523 14.8389 18.0303 14.6582 17.8643 14.6875C17.4492 14.7705 17.0293 14.7754 16.5996 14.795Z" fill="#151515"/>
</g>
<defs>
<clipPath id="clip0_253_360">
<rect width="18" height="20" fill="white"/>
</clipPath>
</defs>
</svg>
