<svg width="24" height="24" viewBox="0 0 24 24" fill="none" xmlns="http://www.w3.org/2000/svg">
<g clip-path="url(#clip0_461_303)">
<path d="M11.0769 0V5.63077C10.0203 5.7907 9.01955 6.20926 8.16369 6.84923L4.16862 2.86154L2.86338 4.16862L6.85108 8.16369C6.2018 9.01497 5.77994 10.0175 5.62523 11.0769H0V12.9231H5.62523C5.784 14.0123 6.216 15 6.85108 15.8363L2.86338 19.8314L4.16862 21.1366L8.16369 17.1415C9 17.7692 9.99508 18.2086 11.0769 18.3674V24H12.9231V18.3692C13.9814 18.2094 14.9828 17.7874 15.8363 17.1415L19.8314 21.1366L21.1366 19.8314L17.1415 15.8363C17.796 14.9873 18.2208 13.984 18.3748 12.9231H24V11.0769H18.3748C18.2208 10.016 17.796 9.01272 17.1415 8.16369L21.1366 4.16862L19.8314 2.86338L15.8363 6.85108C14.9806 6.21045 13.9799 5.79125 12.9231 5.63077V0H11.0769ZM12 7.38462C14.5606 7.38462 16.6154 9.43938 16.6154 12C16.6154 14.5606 14.5606 16.6154 12 16.6154C11.3934 16.6173 10.7923 16.4993 10.2315 16.268C9.67062 16.0368 9.16105 15.6969 8.73208 15.2679C8.30311 14.839 7.96322 14.3294 7.73197 13.7685C7.50071 13.2077 7.38266 12.6066 7.38462 12C7.38462 9.43938 9.43938 7.38462 12 7.38462Z" fill="#FAFAFA"/>
</g>
<defs>
<clipPath id="clip0_461_303">
<rect width="24" height="24" fill="white"/>
</clipPath>
</defs>
</svg>
